<?xml version="1.0" standalone="no"?>
<!DOCTYPE svg PUBLIC "-//W3C//DTD SVG 20010904//EN"
 "http://www.w3.org/TR/2001/REC-SVG-20010904/DTD/svg10.dtd">
<svg version="1.0" xmlns="http://www.w3.org/2000/svg"
 width="400.000000pt" height="400.000000pt" viewBox="0 0 400.000000 400.000000"
 preserveAspectRatio="xMidYMid meet">
<metadata>
Created by potrace 1.11, written by Peter Selinger 2001-2013
</metadata>
<g transform="translate(0.000000,400.000000) scale(0.100000,-0.100000)"
fill="#000000" stroke="none">
<path d="M0 3970 c0 -27 3 -30 29 -30 17 0 32 4 35 8 3 5 49 9 103 11 54 1
114 6 133 11 19 5 46 9 60 9 14 0 46 2 73 5 29 4 47 2 47 -4 0 -5 9 -10 20
-10 30 0 73 -21 98 -49 18 -20 25 -22 31 -12 6 9 16 -18 29 -75 14 -57 18 -92
12 -99 -6 -7 -7 -15 -4 -18 10 -10 -89 -68 -105 -62 -7 3 -25 -2 -38 -10 -21
-14 -50 -16 -191 -11 -92 3 -204 8 -249 12 l-83 7 0 -34 0 -34 303 0 c301 0
304 0 350 -24 46 -24 109 -78 135 -117 7 -10 10 -14 7 -8 -6 13 19 77 26 69 9
-8 -3 109 -12 127 -5 9 -9 29 -9 45 0 15 -4 33 -8 40 -9 14 9 157 21 169 4 4
7 15 7 24 0 10 9 29 20 43 11 14 20 30 20 36 0 8 -126 11 -430 11 l-430 0 0
-30z"/>
<path d="M3633 3972 c15 -15 27 -35 27 -44 0 -9 5 -20 10 -23 11 -7 7 -112 -6
-155 -4 -14 -14 -33 -22 -43 -17 -19 -8 -37 10 -19 28 28 66 14 114 -42 49
-57 92 -83 120 -72 20 8 60 -16 91 -53 l22 -26 1 253 0 252 -197 0 -197 0 27
-28z"/>
<path d="M1962 3908 c-7 -7 -12 -21 -12 -32 0 -20 -2 -19 -20 4 -17 22 -20 22
-20 6 0 -15 -2 -16 -15 -6 -13 11 -18 10 -30 -6 -9 -11 -14 -13 -13 -5 2 7 -3
16 -11 19 -8 3 -11 0 -7 -7 4 -6 0 -11 -9 -11 -12 0 -15 -5 -11 -16 4 -12 -5
-8 -29 10 -19 15 -32 20 -29 12 9 -22 -17 -31 -33 -11 -21 29 -15 10 9 -31 18
-30 19 -36 6 -32 -8 4 -21 1 -27 -5 -8 -8 -16 -6 -30 7 -15 13 -20 14 -24 4
-4 -9 -12 -6 -26 12 -18 21 -22 23 -31 10 -5 -8 -10 -23 -10 -34 0 -16 -2 -16
-21 5 -19 23 -20 23 -10 2 16 -31 14 -64 -3 -57 -10 4 -12 -2 -9 -20 4 -17 -1
-27 -15 -35 -23 -12 -64 -11 -73 2 -3 5 -8 0 -11 -11 -3 -12 2 -23 13 -30 15
-10 17 -9 12 6 -5 13 -3 14 6 6 10 -9 10 -17 2 -32 -12 -23 -38 -35 -46 -22
-4 6 -11 10 -16 10 -6 0 -4 -6 4 -14 17 -17 17 -62 0 -59 -7 2 -14 -6 -18 -16
-3 -11 -17 -22 -30 -25 -27 -7 -32 -25 -13 -44 9 -9 8 -12 -4 -12 -22 0 -48
-32 -30 -37 17 -6 15 -21 -2 -19 -8 0 -15 -2 -15 -7 -1 -4 -7 -22 -15 -41 -8
-19 -12 -37 -9 -40 3 -2 1 -11 -3 -18 -9 -14 -13 -35 -17 -88 -1 -19 -6 -41
-10 -47 -5 -7 -4 -13 1 -13 10 0 8 -25 -6 -102 -13 -69 -5 -224 14 -274 19
-49 13 -69 -16 -54 -10 5 -26 10 -36 10 -15 0 -16 -8 -10 -71 3 -39 9 -77 13
-83 4 -6 8 -18 8 -26 4 -44 6 -50 20 -50 8 0 15 7 15 15 0 15 21 21 32 9 11
-11 -5 -45 -18 -40 -8 3 -14 1 -14 -3 0 -5 7 -11 15 -15 18 -6 11 -52 -12 -74
-11 -11 -13 -11 -13 4 0 10 -3 14 -7 11 -7 -8 29 -80 55 -109 8 -10 29 -20 47
-24 30 -5 36 -13 71 -97 38 -90 39 -95 39 -214 0 -118 -1 -123 -27 -150 -34
-37 -71 -112 -97 -199 l-21 -71 -92 -38 c-116 -47 -138 -54 -323 -111 -82 -25
-187 -63 -232 -85 -93 -44 -187 -83 -223 -94 -42 -13 -219 -90 -332 -145
l-108 -53 0 -503 0 -504 935 0 c789 0 935 2 935 14 0 7 -19 31 -42 52 -55 49
-77 81 -71 105 3 10 8 19 12 19 3 0 26 -27 51 -60 25 -32 48 -59 53 -59 4 -1
7 -6 7 -12 0 -5 -6 -7 -12 -3 -10 5 -10 4 -1 -6 10 -10 15 -11 27 -1 11 9 15
9 19 -1 4 -10 6 -10 6 0 1 6 7 12 15 12 9 0 13 7 11 18 -2 10 1 25 6 33 6 9 9
-2 9 -33 0 -36 -4 -48 -15 -48 -8 0 -15 -7 -15 -15 0 -8 9 -15 20 -15 18 0 20
7 20 66 0 55 3 65 15 60 9 -3 15 0 15 10 0 9 -5 12 -12 8 -8 -5 -7 -1 2 10 13
17 14 17 21 -1 7 -16 8 -17 10 0 1 9 3 22 4 27 1 6 3 16 4 23 1 9 3 9 9 0 4
-6 6 -49 6 -95 -2 -101 -2 -98 -13 -98 -6 0 -8 9 -6 20 2 11 0 20 -6 20 -5 0
-9 -11 -9 -26 0 -24 2 -25 48 -22 40 3 47 6 50 26 2 12 7 22 12 22 6 0 6 -10
0 -25 -9 -24 -8 -25 29 -25 22 0 42 6 44 13 4 9 6 9 6 0 1 -10 188 -13 901
-13 l900 0 0 446 0 446 -38 39 c-22 21 -44 39 -50 39 -7 0 -12 4 -12 9 0 5
-12 12 -27 16 -15 3 -97 42 -183 85 -85 42 -236 108 -335 145 -99 37 -189 73
-200 80 -21 13 -282 118 -325 130 -14 4 -54 22 -90 40 l-65 33 -29 87 c-32 95
-34 140 -15 299 7 55 21 111 36 145 14 30 35 82 48 114 17 47 29 63 60 80 37
21 85 78 104 123 5 11 12 51 15 88 3 37 9 73 14 80 12 14 24 139 16 160 -3 9
-16 16 -29 16 -21 0 -22 3 -14 38 12 51 11 164 -2 237 -5 33 -12 85 -14 115
-2 30 -7 74 -10 98 -5 27 -4 42 3 42 6 0 2 16 -8 37 -10 21 -16 41 -13 46 2 4
-1 15 -9 24 -10 12 -10 17 -1 20 9 3 7 10 -5 23 -10 11 -19 33 -20 51 -3 34
-21 58 -40 51 -19 -6 -14 9 10 29 17 16 18 19 5 19 -10 0 -17 5 -17 11 0 5 -6
7 -12 4 -7 -4 -6 -1 3 7 9 7 14 19 11 26 -3 10 -9 9 -26 -5 -11 -9 -15 -11 -8
-3 15 18 16 34 0 24 -8 -5 -9 0 -5 15 3 13 3 20 0 17 -3 -3 -11 0 -19 7 -40
36 -42 37 -47 19 -4 -14 -5 -14 -6 -1 -1 12 -8 15 -28 11 -22 -4 -25 -2 -19
13 6 16 4 16 -11 4 -15 -12 -16 -12 -11 7 3 13 0 21 -8 21 -7 0 -11 -4 -8 -9
3 -4 -2 -5 -11 -2 -8 4 -14 14 -13 23 2 11 -3 15 -16 13 -11 -2 -15 1 -11 8 5
8 1 11 -11 8 -18 -3 -36 7 -76 45 -10 10 -23 15 -28 12 -5 -3 -15 4 -24 16
-12 18 -18 20 -29 11 -12 -10 -13 -8 -9 14 4 24 3 25 -16 15 -18 -10 -20 -9
-17 9 5 24 -1 25 -21 5 -16 -16 -35 -20 -33 -7 3 19 -2 26 -10 13 -8 -13 -12
-13 -26 -1 -18 15 -55 21 -55 9 0 -15 -60 -2 -74 16 -9 11 -16 15 -16 7 0 -13
-60 -14 -60 0 0 12 -35 9 -48 -4z m-348 -104 c3 -8 2 -12 -4 -9 -6 3 -10 10
-10 16 0 14 7 11 14 -7z m581 -190 c101 -8 171 -37 227 -95 29 -29 45 -55 42
-63 -3 -9 3 -20 15 -28 28 -17 27 -31 -1 -22 -21 6 -22 5 -8 -12 8 -10 22 -27
32 -37 10 -10 18 -29 18 -42 0 -18 5 -25 20 -25 14 0 18 -5 13 -17 -4 -10 -2
-14 5 -10 6 4 20 -11 33 -37 19 -38 21 -54 15 -108 -4 -35 -7 -69 -8 -75 -2
-15 -24 -17 -32 -4 -3 5 -33 12 -67 16 -48 6 -64 4 -78 -9 -10 -9 -22 -16 -27
-16 -5 0 0 7 10 15 15 11 17 18 9 26 -8 8 -14 5 -22 -10 -7 -12 -17 -21 -23
-21 -7 0 -6 5 2 15 8 9 8 15 2 15 -6 0 -20 -12 -32 -27 -15 -20 -23 -24 -32
-15 -8 8 -18 2 -39 -26 -34 -45 -38 -72 -9 -65 11 3 20 9 20 14 0 5 11 7 23 3
13 -3 61 0 107 6 48 7 86 8 89 2 3 -4 14 -11 24 -15 10 -4 15 -11 12 -17 -3
-5 -3 -16 2 -22 10 -17 14 -40 8 -56 -4 -10 -9 -10 -27 2 -13 8 -60 24 -106
35 l-83 21 -40 -20 c-21 -11 -39 -25 -39 -31 0 -6 -4 -8 -9 -5 -10 6 -21 -16
-21 -41 0 -9 6 -13 15 -9 12 4 13 2 3 -14 -7 -10 -9 -23 -5 -27 5 -4 12 -2 16
5 7 11 56 42 66 42 2 0 6 -13 10 -29 5 -25 12 -30 53 -36 26 -4 50 -12 53 -17
4 -7 9 -6 13 1 4 6 3 11 -3 11 -7 0 -7 8 1 25 14 32 32 21 24 -17 -3 -16 -2
-27 3 -24 5 3 23 3 40 0 21 -5 31 -12 31 -25 0 -23 8 -24 47 -4 34 17 51 68
31 92 -10 12 -7 12 15 2 15 -7 27 -18 27 -24 0 -7 9 -20 20 -30 11 -10 23 -33
26 -52 5 -28 3 -37 -15 -49 -21 -15 -28 -48 -12 -58 11 -7 -16 -66 -29 -66 -5
0 -12 -16 -16 -35 -3 -19 -10 -35 -15 -35 -12 0 -49 -37 -49 -49 0 -16 -60
-53 -75 -47 -8 3 -15 2 -15 -3 0 -5 9 -11 20 -14 11 -3 20 -10 20 -16 0 -6 -8
-8 -17 -4 -17 6 -17 5 0 -14 19 -21 22 -50 8 -72 -6 -9 -5 -21 1 -31 8 -12 5
-40 -10 -101 -11 -46 -26 -111 -32 -143 -9 -42 -21 -68 -41 -89 -16 -16 -29
-30 -29 -33 0 -13 -50 -50 -104 -75 -63 -29 -121 -39 -241 -40 -70 0 -106 4
-124 15 -7 5 -34 10 -59 11 -34 1 -54 8 -75 28 -16 15 -33 27 -37 27 -4 0 -10
7 -14 15 -3 8 -12 15 -21 15 -8 0 -15 7 -15 15 0 8 -4 15 -10 15 -12 0 -41 55
-33 63 3 4 -5 11 -18 16 -34 13 -65 49 -89 104 -12 26 -25 47 -29 47 -5 0 -12
25 -16 55 -3 30 -10 55 -14 55 -4 0 -7 25 -7 55 1 50 6 60 29 56 4 0 7 4 7 9
0 6 -4 10 -10 10 -5 0 -10 7 -10 16 0 20 -30 84 -47 102 -13 14 -17 32 -13 66
2 22 -19 76 -31 76 -16 0 -29 39 -34 97 -5 67 8 125 32 144 15 12 16 12 11 -3
-5 -10 0 -18 12 -21 24 -6 45 8 35 24 -6 9 -3 11 9 6 10 -4 24 -7 31 -7 9 0
12 -11 9 -37 -8 -63 15 -77 79 -49 50 22 97 31 97 19 0 -6 18 -5 48 2 33 9 48
18 50 31 7 44 11 46 45 20 46 -35 79 -33 45 3 -11 11 -9 12 10 6 17 -5 22 -2
22 12 0 21 -21 41 -65 63 -17 8 -32 18 -35 21 -3 3 -43 -2 -90 -13 -47 -10
-95 -20 -107 -21 -11 -1 -19 -6 -16 -10 3 -5 -4 -11 -16 -14 -11 -3 -19 -8
-17 -12 2 -3 -7 -7 -20 -7 -15 -1 -23 3 -21 10 3 6 10 10 17 8 7 -2 10 3 7 11
-7 18 2 29 35 46 15 8 30 22 33 32 3 9 12 20 20 23 14 5 178 -9 219 -20 23 -5
55 20 42 33 -3 3 -6 1 -6 -5 0 -7 -5 -12 -10 -12 -6 0 -10 6 -9 13 1 6 1 23 0
37 -2 25 -2 25 -11 3 -10 -24 -30 -32 -30 -12 0 6 -7 9 -15 5 -9 -3 -21 4 -31
19 -9 14 -20 23 -24 20 -5 -3 -11 -1 -14 4 -8 12 -76 3 -94 -12 -10 -8 -16 -7
-20 0 -4 6 -30 10 -62 8 -48 -3 -58 -7 -83 -37 -23 -27 -29 -30 -37 -18 -5 8
-15 15 -22 15 -15 0 -19 54 -5 73 6 8 6 12 -2 12 -6 0 -11 5 -11 10 0 6 9 10
20 10 11 0 20 5 20 10 0 6 7 10 15 10 9 0 15 9 15 23 0 12 9 37 21 56 11 19
19 45 16 57 -2 14 2 25 9 28 8 3 14 14 14 25 0 11 9 22 20 26 11 3 20 11 20
16 0 5 5 8 12 7 6 -2 18 9 25 25 8 15 18 27 22 27 18 0 21 33 4 46 -17 12 -16
15 15 44 37 34 144 87 209 104 42 11 182 11 318 0z m-748 -646 c-3 -8 -6 -5
-6 6 -1 11 2 17 5 13 3 -3 4 -12 1 -19z m338 -88 c40 -15 22 -28 -33 -22 -33
3 -59 -1 -80 -12 -37 -19 -43 -6 -9 17 40 26 82 32 122 17z m681 -28 c26 -15
2 -22 -42 -12 -21 5 -49 7 -61 4 -12 -3 -30 -1 -40 4 -19 11 -14 13 52 25 22
4 64 -6 91 -21z m-702 -37 c-4 -8 -10 -15 -15 -15 -4 0 -6 7 -3 15 4 8 10 15
15 15 4 0 6 -7 3 -15z m-88 -43 c-4 -3 -11 -1 -18 6 -8 8 -8 15 3 28 13 16 14
16 17 -5 2 -13 1 -25 -2 -29z m-445 -71 c5 8 9 9 9 3 0 -6 -6 -16 -13 -22 -10
-8 -13 -6 -14 11 0 12 1 16 4 8 5 -11 7 -11 14 0z m1638 -333 c-12 -28 -13
-29 -26 -12 -18 25 -16 41 10 77 l22 32 3 -34 c2 -18 -2 -47 -9 -63z m-1543
22 c5 -24 3 -32 -4 -25 -5 6 -13 26 -17 45 -5 25 -4 32 4 25 6 -6 14 -26 17
-45z m-26 -35 c0 -8 -4 -15 -9 -15 -5 0 -11 7 -15 15 -3 9 0 15 9 15 8 0 15
-7 15 -15z m1524 -36 c-3 -5 -10 -7 -15 -3 -5 3 -7 10 -3 15 3 5 10 7 15 3 5
-3 7 -10 3 -15z m-214 -89 c0 -11 3 -20 8 -20 10 0 -2 -118 -16 -152 -6 -14
-16 -29 -21 -33 -6 -3 -11 -14 -11 -23 -1 -20 -34 -62 -49 -62 -19 0 -8 60 40
213 29 91 49 123 49 77z m-1065 -510 c-4 -12 -2 -20 5 -20 6 0 8 -5 4 -12 -5
-8 -2 -9 10 -5 9 4 15 3 12 -1 -6 -10 41 -63 89 -99 37 -28 64 -41 90 -44 6 0
15 -5 21 -10 37 -31 323 -61 365 -38 12 6 19 5 21 -2 5 -16 80 -20 97 -5 12 9
13 8 8 -6 -4 -12 -2 -18 8 -18 8 0 15 6 16 13 0 10 2 10 6 0 7 -19 46 -16 69
5 26 24 135 84 142 78 3 -3 0 -12 -6 -19 -8 -9 -8 -17 -1 -24 12 -12 1 -45
-13 -37 -6 4 -6 -2 1 -14 15 -28 -35 -122 -102 -190 -45 -46 -188 -162 -200
-162 -2 0 -4 7 -4 15 0 8 2 13 5 10 6 -6 32 21 32 33 0 5 7 15 15 22 8 7 12
17 9 22 -4 5 3 23 15 38 14 20 17 30 8 33 -9 4 -8 8 3 16 19 14 5 14 -21 0
-11 -5 -17 -14 -14 -18 7 -12 -21 -22 -40 -15 -8 4 -15 2 -15 -4 0 -5 -9 -12
-19 -15 -18 -4 -71 -76 -71 -95 0 -14 -45 -34 -66 -30 -11 1 -27 20 -38 41
-12 25 -23 36 -33 33 -9 -4 -11 -2 -7 6 5 7 2 9 -9 5 -8 -3 -21 1 -27 9 -14
15 -35 20 -25 5 3 -5 0 -13 -6 -17 -8 -5 -4 -13 12 -26 l24 -20 -30 7 c-30 6
-30 6 -7 -10 12 -9 22 -23 22 -31 0 -9 5 -14 12 -12 17 6 60 -33 54 -49 -3 -7
0 -15 6 -19 7 -4 6 -9 -3 -15 -11 -7 -10 -9 4 -9 24 0 22 -15 -3 -17 -11 -1
-20 2 -20 8 0 5 -8 9 -18 9 -42 0 -277 227 -352 340 -73 108 -83 128 -76 146
3 9 1 12 -4 9 -14 -8 -13 51 1 77 8 15 8 19 0 14 -7 -5 -11 4 -11 26 0 22 3
29 9 19 6 -9 10 -10 16 -2 4 7 1 19 -7 28 -7 9 -8 14 -1 10 7 -4 15 5 22 23
11 33 26 42 16 10z m482 -800 c2 -23 2 -23 -6 -5 -8 17 -10 16 -10 -10 0 -16
4 -37 9 -45 9 -13 10 -13 10 0 0 13 1 13 10 0 8 -12 10 -10 10 8 0 21 1 22 16
8 13 -13 13 -18 2 -29 -7 -8 -21 -13 -31 -11 -12 2 -17 -5 -17 -22 0 -14 -4
-22 -10 -19 -5 3 -10 1 -10 -4 0 -6 5 -11 10 -11 6 0 10 -4 10 -10 0 -5 -8 -7
-17 -4 -17 5 -17 5 0 -6 19 -12 13 -35 -6 -24 -8 4 -7 2 1 -7 8 -9 15 -10 20
-4 4 6 18 16 32 24 22 13 24 12 13 -1 -7 -8 -10 -18 -7 -21 3 -3 -6 -22 -21
-41 -15 -19 -24 -40 -20 -46 4 -6 -7 -10 -29 -10 -42 0 -54 15 -31 40 9 10 14
23 10 29 -4 7 1 8 12 4 14 -5 13 -1 -6 20 -14 15 -19 27 -13 27 7 0 12 -5 12
-12 0 -6 3 -8 7 -5 4 4 -9 24 -28 43 -31 33 -31 35 -6 19 25 -16 27 -16 27 -1
0 10 -3 15 -7 13 -5 -3 -14 2 -22 10 -12 13 -11 14 7 8 18 -5 21 -3 15 11 -4
12 -3 15 5 10 16 -9 16 28 0 53 -17 28 -3 53 29 49 22 -2 29 -9 30 -28z m-75
-7 c0 -10 2 -25 3 -33 1 -8 -1 -19 -4 -24 -6 -12 -19 22 -20 52 -1 26 18 30
21 5z m78 -309 c0 -9 7 -22 16 -28 13 -10 13 -12 -5 -13 -12 -1 -23 6 -26 18
-4 10 -12 19 -18 19 -7 0 -6 4 3 10 22 14 30 12 30 -6z m-85 -29 c-2 -16 -3
-33 -4 -37 -1 -3 -27 -21 -58 -39 -32 -18 -62 -37 -66 -43 -5 -7 -7 -3 -5 8 4
23 46 56 75 59 24 1 48 33 33 42 -5 3 -18 1 -28 -4 -11 -6 -22 -7 -26 -4 -3 3
-6 0 -6 -7 0 -7 -3 -10 -7 -6 -9 9 56 62 77 62 13 0 17 -7 15 -31z m-105 -35
c0 -5 -9 -14 -20 -20 -24 -13 -26 -7 -4 14 18 18 24 20 24 6z m160 -27 c0 -10
-5 -25 -10 -33 -8 -12 -11 -13 -19 -1 -12 18 -2 51 15 51 8 0 14 -8 14 -17z
m85 -333 c-3 -5 2 -10 12 -11 10 0 13 -3 6 -6 -7 -2 -13 -19 -13 -38 0 -44
-11 -95 -20 -95 -4 0 -6 15 -3 32 2 18 4 54 5 81 1 26 5 47 10 47 5 0 6 -4 3
-10z"/>
<path d="M1790 3053 c0 -5 4 -15 10 -23 11 -18 25 -7 17 15 -6 15 -27 21 -27
8z"/>
<path d="M2160 2818 c-27 -33 -43 -111 -35 -164 3 -16 14 -48 25 -69 24 -47
26 -93 4 -123 -17 -24 -61 -48 -84 -46 -8 1 -20 2 -25 3 -6 0 -22 12 -37 26
-20 19 -34 23 -55 19 -23 -4 -34 0 -56 25 -33 37 -40 38 -61 6 -20 -30 -20
-32 2 -37 9 -3 26 -23 37 -44 23 -44 39 -64 53 -64 6 0 12 -7 16 -15 3 -8 16
-15 28 -15 13 0 35 -7 51 -14 24 -13 27 -13 27 2 0 13 2 13 14 -3 13 -18 15
-18 39 -2 14 9 33 14 41 11 9 -3 16 -1 16 5 0 8 6 9 18 2 14 -7 24 -2 50 29
17 21 32 41 32 45 0 3 8 15 19 26 18 20 18 20 52 -8 31 -25 31 -23 -4 22 -4 5
-21 31 -37 58 -16 26 -36 47 -44 47 -28 0 -56 55 -56 108 0 28 -4 53 -9 56
-20 13 -18 60 4 103 28 51 12 58 -25 11z"/>
<path d="M2317 2724 c3 -8 16 -14 29 -14 32 0 30 6 -5 18 -25 9 -29 8 -24 -4z"/>
<path d="M2008 2700 c-3 -20 0 -30 9 -30 8 0 13 12 13 30 0 17 -4 30 -9 30 -5
0 -11 -13 -13 -30z"/>
<path d="M1935 2550 c-3 -5 -1 -10 4 -10 6 0 11 5 11 10 0 6 -2 10 -4 10 -3 0
-8 -4 -11 -10z"/>
<path d="M2530 2415 c0 -8 4 -15 9 -15 5 0 11 7 15 15 3 9 0 15 -9 15 -8 0
-15 -7 -15 -15z"/>
<path d="M2390 2253 c0 -5 -138 -7 -307 -7 -170 1 -316 0 -326 -3 -9 -2 -22
-13 -28 -24 -13 -25 -3 -60 16 -53 8 3 29 -16 55 -49 40 -54 54 -63 133 -87
28 -9 42 -9 49 -2 13 13 -4 38 -33 47 -24 8 -25 25 -1 25 15 0 15 2 2 11 -12
9 -11 9 5 4 11 -4 26 -8 33 -8 6 0 12 -3 12 -6 0 -4 19 -5 43 -2 l42 4 -49 12
c-26 7 -51 17 -55 22 -3 6 -30 9 -58 7 -52 -2 -53 -1 -53 26 0 15 6 30 13 33
8 3 91 4 186 3 123 -2 175 -6 180 -15 4 -6 15 -9 23 -6 9 4 19 1 23 -4 3 -6
10 -9 15 -6 5 3 11 1 15 -5 6 -9 -8 -15 -29 -11 -5 1 -13 -3 -17 -10 -9 -15
-39 -21 -54 -10 -15 11 -74 6 -87 -7 -7 -7 -18 -12 -24 -12 -7 0 -15 -4 -18
-9 -3 -5 16 -7 42 -5 36 3 41 2 22 -5 -25 -9 -25 -9 5 -10 l30 -2 -27 -20
c-38 -28 -27 -45 33 -48 36 -1 59 4 84 19 19 12 35 25 35 29 0 5 16 29 35 54
26 34 40 44 54 40 18 -5 20 -1 15 33 -3 22 -7 45 -10 52 -4 13 -24 17 -24 5z
m-530 -78 c0 -9 -6 -12 -15 -9 -8 4 -15 10 -15 15 0 5 7 9 15 9 8 0 15 -7 15
-15z"/>
<path d="M2290 1260 c0 -5 5 -10 10 -10 6 0 10 5 10 10 0 6 -4 10 -10 10 -5 0
-10 -4 -10 -10z"/>
<path d="M1824 1185 c11 -8 22 -12 25 -9 6 6 -19 24 -34 24 -5 -1 -1 -7 9 -15z"/>
<path d="M1992 905 c0 -16 2 -22 5 -12 2 9 2 23 0 30 -3 6 -5 -1 -5 -18z"/>
<path d="M1996 825 c4 -8 8 -15 10 -15 2 0 4 7 4 15 0 8 -4 15 -10 15 -5 0 -7
-7 -4 -15z"/>
<path d="M1894 578 c-4 -7 -3 -8 5 -4 6 4 20 2 29 -6 15 -12 16 -11 3 5 -16
20 -27 22 -37 5z"/>
<path d="M3945 3223 c-14 -13 -16 -27 -10 -72 4 -31 11 -57 15 -59 5 -2 14
-19 20 -38 20 -60 30 -37 30 70 0 85 -3 105 -16 110 -21 8 -20 8 -39 -11z"/>
<path d="M3945 2062 c-3 -3 -5 -24 -5 -47 0 -43 13 -68 43 -78 15 -6 17 1 17
57 0 60 -2 64 -25 68 -13 3 -27 3 -30 0z"/>
<path d="M3738 1573 c-5 -11 -2 -70 7 -128 13 -86 64 -146 80 -95 3 11 13 20
21 20 22 0 16 20 -16 50 -18 17 -31 40 -33 61 -6 58 -46 120 -59 92z"/>
<path d="M3991 1484 c0 -11 3 -14 6 -6 3 7 2 16 -1 19 -3 4 -6 -2 -5 -13z"/>
<path d="M3986 1368 c-4 -35 -10 -87 -13 -115 -2 -29 -9 -53 -14 -53 -21 0 -7
-28 16 -32 l25 -5 0 133 c0 74 -2 134 -4 134 -2 0 -7 -28 -10 -62z"/>
<path d="M3920 1051 c0 -7 -4 -9 -10 -6 -6 3 -7 -1 -4 -9 5 -13 -1 -15 -37
-12 -43 4 -43 4 -17 -10 23 -12 31 -12 64 2 21 9 33 19 28 22 -5 4 -12 11 -16
16 -5 5 -8 4 -8 -3z"/>
<path d="M1980 75 c0 -8 4 -15 8 -15 5 0 9 7 9 15 0 8 -4 15 -9 15 -4 0 -8 -7
-8 -15z"/>
<path d="M2010 75 c0 -8 4 -15 8 -15 5 0 9 7 9 15 0 8 -4 15 -9 15 -4 0 -8 -7
-8 -15z"/>
</g>
</svg>
